<mxfile host="65bd71144e">
    <diagram id="5KkI5XXTj3DFTWjHAgiF" name="Page-1">
        <mxGraphModel dx="236" dy="469" grid="1" gridSize="10" guides="1" tooltips="1" connect="1" arrows="1" fold="1" page="1" pageScale="1" pageWidth="827" pageHeight="1169" math="0" shadow="0">
            <root>
                <mxCell id="0"/>
                <mxCell id="1" parent="0"/>
                <mxCell id="2" value="Client" style="swimlane;fontStyle=1;align=center;verticalAlign=middle;childLayout=stackLayout;horizontal=1;startSize=29;horizontalStack=0;resizeParent=1;resizeParentMax=0;resizeLast=0;collapsible=0;marginBottom=0;html=1;fillColor=#0050ef;fontColor=#ffffff;strokeColor=#001DBC;" parent="1" vertex="1">
                    <mxGeometry x="10" y="435" width="180" height="204" as="geometry"/>
                </mxCell>
                <mxCell id="3" value="idClient INT" style="text;html=1;strokeColor=none;fillColor=none;align=center;verticalAlign=middle;spacingLeft=4;spacingRight=4;overflow=hidden;rotatable=0;points=[[0,0.5],[1,0.5]];portConstraint=eastwest;fontColor=#FFFF33;" parent="2" vertex="1">
                    <mxGeometry y="29" width="180" height="25" as="geometry"/>
                </mxCell>
                <mxCell id="4" value="nom NVARCHAR(50)" style="text;html=1;strokeColor=none;fillColor=none;align=center;verticalAlign=middle;spacingLeft=4;spacingRight=4;overflow=hidden;rotatable=0;points=[[0,0.5],[1,0.5]];portConstraint=eastwest;" parent="2" vertex="1">
                    <mxGeometry y="54" width="180" height="25" as="geometry"/>
                </mxCell>
                <mxCell id="5" value="prenom NVARCHAR(50)" style="text;html=1;strokeColor=none;fillColor=none;align=center;verticalAlign=middle;spacingLeft=4;spacingRight=4;overflow=hidden;rotatable=0;points=[[0,0.5],[1,0.5]];portConstraint=eastwest;" parent="2" vertex="1">
                    <mxGeometry y="79" width="180" height="25" as="geometry"/>
                </mxCell>
                <mxCell id="6" value="email NVARCHAR(255)" style="text;html=1;strokeColor=none;fillColor=none;align=center;verticalAlign=middle;spacingLeft=4;spacingRight=4;overflow=hidden;rotatable=0;points=[[0,0.5],[1,0.5]];portConstraint=eastwest;" parent="2" vertex="1">
                    <mxGeometry y="104" width="180" height="25" as="geometry"/>
                </mxCell>
                <mxCell id="7" value="pays NVARCHAR(50)" style="text;html=1;strokeColor=none;fillColor=none;align=center;verticalAlign=middle;spacingLeft=4;spacingRight=4;overflow=hidden;rotatable=0;points=[[0,0.5],[1,0.5]];portConstraint=eastwest;" parent="2" vertex="1">
                    <mxGeometry y="129" width="180" height="25" as="geometry"/>
                </mxCell>
                <mxCell id="8" value="telephone NVARCHAR(20)" style="text;html=1;strokeColor=none;fillColor=none;align=center;verticalAlign=middle;spacingLeft=4;spacingRight=4;overflow=hidden;rotatable=0;points=[[0,0.5],[1,0.5]];portConstraint=eastwest;" parent="2" vertex="1">
                    <mxGeometry y="154" width="180" height="25" as="geometry"/>
                </mxCell>
                <mxCell id="9" value="password VARBINARY(64)" style="text;html=1;strokeColor=none;fillColor=none;align=center;verticalAlign=middle;spacingLeft=4;spacingRight=4;overflow=hidden;rotatable=0;points=[[0,0.5],[1,0.5]];portConstraint=eastwest;" parent="2" vertex="1">
                    <mxGeometry y="179" width="180" height="25" as="geometry"/>
                </mxCell>
                <mxCell id="10" value="Proprietaire" style="swimlane;fontStyle=1;align=center;verticalAlign=middle;childLayout=stackLayout;horizontal=1;startSize=29;horizontalStack=0;resizeParent=1;resizeParentMax=0;resizeLast=0;collapsible=0;marginBottom=0;html=1;fillColor=#008a00;fontColor=#ffffff;strokeColor=#005700;" parent="1" vertex="1">
                    <mxGeometry x="100" y="160" width="190" height="54" as="geometry"/>
                </mxCell>
                <mxCell id="11" value="idClient INT" style="text;html=1;strokeColor=none;fillColor=none;align=center;verticalAlign=middle;spacingLeft=4;spacingRight=4;overflow=hidden;rotatable=0;points=[[0,0.5],[1,0.5]];portConstraint=eastwest;fontColor=#FFFF33;" parent="10" vertex="1">
                    <mxGeometry y="29" width="190" height="25" as="geometry"/>
                </mxCell>
                <mxCell id="19" value="Logement" style="swimlane;fontStyle=1;align=center;verticalAlign=middle;childLayout=stackLayout;horizontal=1;startSize=29;horizontalStack=0;resizeParent=1;resizeParentMax=0;resizeLast=0;collapsible=0;marginBottom=0;html=1;fillColor=#008a00;fontColor=#ffffff;strokeColor=#005700;" parent="1" vertex="1">
                    <mxGeometry x="430" y="22.5" width="210" height="679" as="geometry"/>
                </mxCell>
                <mxCell id="20" value="idLogment INT" style="text;html=1;strokeColor=none;fillColor=none;align=center;verticalAlign=middle;spacingLeft=4;spacingRight=4;overflow=hidden;rotatable=0;points=[[0,0.5],[1,0.5]];portConstraint=eastwest;fontColor=#FFFF00;" parent="19" vertex="1">
                    <mxGeometry y="29" width="210" height="25" as="geometry"/>
                </mxCell>
                <mxCell id="347" value="nom NVARCHAR(255)" style="text;html=1;strokeColor=none;fillColor=none;align=center;verticalAlign=middle;spacingLeft=4;spacingRight=4;overflow=hidden;rotatable=0;points=[[0,0.5],[1,0.5]];portConstraint=eastwest;" parent="19" vertex="1">
                    <mxGeometry y="54" width="210" height="25" as="geometry"/>
                </mxCell>
                <mxCell id="43" value="boite NVARCHAR(50)" style="text;html=1;strokeColor=none;fillColor=none;align=center;verticalAlign=middle;spacingLeft=4;spacingRight=4;overflow=hidden;rotatable=0;points=[[0,0.5],[1,0.5]];portConstraint=eastwest;" parent="19" vertex="1">
                    <mxGeometry y="79" width="210" height="25" as="geometry"/>
                </mxCell>
                <mxCell id="44" value="numero VARCHAR(5)" style="text;html=1;strokeColor=none;fillColor=none;align=center;verticalAlign=middle;spacingLeft=4;spacingRight=4;overflow=hidden;rotatable=0;points=[[0,0.5],[1,0.5]];portConstraint=eastwest;" parent="19" vertex="1">
                    <mxGeometry y="104" width="210" height="25" as="geometry"/>
                </mxCell>
                <mxCell id="45" value="rue NVARCHAR(250)" style="text;html=1;strokeColor=none;fillColor=none;align=center;verticalAlign=middle;spacingLeft=4;spacingRight=4;overflow=hidden;rotatable=0;points=[[0,0.5],[1,0.5]];portConstraint=eastwest;" parent="19" vertex="1">
                    <mxGeometry y="129" width="210" height="25" as="geometry"/>
                </mxCell>
                <mxCell id="46" value="pays NVARCHAR(50)" style="text;html=1;strokeColor=none;fillColor=none;align=center;verticalAlign=middle;spacingLeft=4;spacingRight=4;overflow=hidden;rotatable=0;points=[[0,0.5],[1,0.5]];portConstraint=eastwest;" parent="19" vertex="1">
                    <mxGeometry y="154" width="210" height="25" as="geometry"/>
                </mxCell>
                <mxCell id="143" value="coordLatitude DECIMAL" style="text;html=1;strokeColor=none;fillColor=none;align=center;verticalAlign=middle;spacingLeft=4;spacingRight=4;overflow=hidden;rotatable=0;points=[[0,0.5],[1,0.5]];portConstraint=eastwest;labelBorderColor=default;fontColor=#FFFFFF;" parent="19" vertex="1">
                    <mxGeometry y="179" width="210" height="25" as="geometry"/>
                </mxCell>
                <mxCell id="374" value="&lt;font color=&quot;#ffffff&quot;&gt;coordLongitude DECIMAL&lt;/font&gt;" style="text;html=1;strokeColor=none;fillColor=none;align=center;verticalAlign=middle;spacingLeft=4;spacingRight=4;overflow=hidden;rotatable=0;points=[[0,0.5],[1,0.5]];portConstraint=eastwest;labelBorderColor=#FFFFFF;fontColor=#FFB366;" vertex="1" parent="19">
                    <mxGeometry y="204" width="210" height="25" as="geometry"/>
                </mxCell>
                <mxCell id="23" value="descriptionCourte NVARCHAR(140)" style="text;html=1;strokeColor=none;fillColor=none;align=center;verticalAlign=middle;spacingLeft=4;spacingRight=4;overflow=hidden;rotatable=0;points=[[0,0.5],[1,0.5]];portConstraint=eastwest;" parent="19" vertex="1">
                    <mxGeometry y="229" width="210" height="25" as="geometry"/>
                </mxCell>
                <mxCell id="24" value="descriptionLongue NVARCHAR(MAX)" style="text;html=1;strokeColor=none;fillColor=none;align=center;verticalAlign=middle;spacingLeft=4;spacingRight=4;overflow=hidden;rotatable=0;points=[[0,0.5],[1,0.5]];portConstraint=eastwest;" parent="19" vertex="1">
                    <mxGeometry y="254" width="210" height="25" as="geometry"/>
                </mxCell>
                <mxCell id="25" value="chambre TINYINT" style="text;html=1;strokeColor=none;fillColor=none;align=center;verticalAlign=middle;spacingLeft=4;spacingRight=4;overflow=hidden;rotatable=0;points=[[0,0.5],[1,0.5]];portConstraint=eastwest;" parent="19" vertex="1">
                    <mxGeometry y="279" width="210" height="25" as="geometry"/>
                </mxCell>
                <mxCell id="26" value="piece TINYINT" style="text;html=1;strokeColor=none;fillColor=none;align=center;verticalAlign=middle;spacingLeft=4;spacingRight=4;overflow=hidden;rotatable=0;points=[[0,0.5],[1,0.5]];portConstraint=eastwest;" parent="19" vertex="1">
                    <mxGeometry y="304" width="210" height="25" as="geometry"/>
                </mxCell>
                <mxCell id="28" value="capacitÃ© TINYINT" style="text;html=1;strokeColor=none;fillColor=none;align=center;verticalAlign=middle;spacingLeft=4;spacingRight=4;overflow=hidden;rotatable=0;points=[[0,0.5],[1,0.5]];portConstraint=eastwest;" parent="19" vertex="1">
                    <mxGeometry y="329" width="210" height="25" as="geometry"/>
                </mxCell>
                <mxCell id="29" value="salledeBain TINYINT" style="text;html=1;strokeColor=none;fillColor=none;align=center;verticalAlign=middle;spacingLeft=4;spacingRight=4;overflow=hidden;rotatable=0;points=[[0,0.5],[1,0.5]];portConstraint=eastwest;" parent="19" vertex="1">
                    <mxGeometry y="354" width="210" height="25" as="geometry"/>
                </mxCell>
                <mxCell id="174" value="wc TINYINT" style="text;html=1;strokeColor=none;fillColor=none;align=center;verticalAlign=middle;spacingLeft=4;spacingRight=4;overflow=hidden;rotatable=0;points=[[0,0.5],[1,0.5]];portConstraint=eastwest;" parent="19" vertex="1">
                    <mxGeometry y="379" width="210" height="25" as="geometry"/>
                </mxCell>
                <mxCell id="165" value="balcon BIT" style="text;html=1;strokeColor=none;fillColor=none;align=center;verticalAlign=middle;spacingLeft=4;spacingRight=4;overflow=hidden;rotatable=0;points=[[0,0.5],[1,0.5]];portConstraint=eastwest;" parent="19" vertex="1">
                    <mxGeometry y="404" width="210" height="25" as="geometry"/>
                </mxCell>
                <mxCell id="166" value="airConditionne BIT" style="text;html=1;strokeColor=none;fillColor=none;align=center;verticalAlign=middle;spacingLeft=4;spacingRight=4;overflow=hidden;rotatable=0;points=[[0,0.5],[1,0.5]];portConstraint=eastwest;" parent="19" vertex="1">
                    <mxGeometry y="429" width="210" height="25" as="geometry"/>
                </mxCell>
                <mxCell id="167" value="wifi BIT" style="text;html=1;strokeColor=none;fillColor=none;align=center;verticalAlign=middle;spacingLeft=4;spacingRight=4;overflow=hidden;rotatable=0;points=[[0,0.5],[1,0.5]];portConstraint=eastwest;" parent="19" vertex="1">
                    <mxGeometry y="454" width="210" height="25" as="geometry"/>
                </mxCell>
                <mxCell id="168" value="minibar BIT" style="text;html=1;strokeColor=none;fillColor=none;align=center;verticalAlign=middle;spacingLeft=4;spacingRight=4;overflow=hidden;rotatable=0;points=[[0,0.5],[1,0.5]];portConstraint=eastwest;" parent="19" vertex="1">
                    <mxGeometry y="479" width="210" height="25" as="geometry"/>
                </mxCell>
                <mxCell id="348" value="animaux BIT" style="text;html=1;strokeColor=none;fillColor=none;align=center;verticalAlign=middle;spacingLeft=4;spacingRight=4;overflow=hidden;rotatable=0;points=[[0,0.5],[1,0.5]];portConstraint=eastwest;" parent="19" vertex="1">
                    <mxGeometry y="504" width="210" height="25" as="geometry"/>
                </mxCell>
                <mxCell id="169" value="piscine BIT" style="text;html=1;strokeColor=none;fillColor=none;align=center;verticalAlign=middle;spacingLeft=4;spacingRight=4;overflow=hidden;rotatable=0;points=[[0,0.5],[1,0.5]];portConstraint=eastwest;" parent="19" vertex="1">
                    <mxGeometry y="529" width="210" height="25" as="geometry"/>
                </mxCell>
                <mxCell id="170" value="voiturier BIT" style="text;html=1;strokeColor=none;fillColor=none;align=center;verticalAlign=middle;spacingLeft=4;spacingRight=4;overflow=hidden;rotatable=0;points=[[0,0.5],[1,0.5]];portConstraint=eastwest;" parent="19" vertex="1">
                    <mxGeometry y="554" width="210" height="25" as="geometry"/>
                </mxCell>
                <mxCell id="171" value="roomService BIT" style="text;html=1;strokeColor=none;fillColor=none;align=center;verticalAlign=middle;spacingLeft=4;spacingRight=4;overflow=hidden;rotatable=0;points=[[0,0.5],[1,0.5]];portConstraint=eastwest;" parent="19" vertex="1">
                    <mxGeometry y="579" width="210" height="25" as="geometry"/>
                </mxCell>
                <mxCell id="80" value="prix MONEY" style="text;html=1;strokeColor=none;fillColor=none;align=center;verticalAlign=middle;spacingLeft=4;spacingRight=4;overflow=hidden;rotatable=0;points=[[0,0.5],[1,0.5]];portConstraint=eastwest;" parent="19" vertex="1">
                    <mxGeometry y="604" width="210" height="25" as="geometry"/>
                </mxCell>
                <mxCell id="146" value="idTypeLogement FK INT" style="text;html=1;strokeColor=none;fillColor=none;align=center;verticalAlign=middle;spacingLeft=4;spacingRight=4;overflow=hidden;rotatable=0;points=[[0,0.5],[1,0.5]];portConstraint=eastwest;" parent="19" vertex="1">
                    <mxGeometry y="629" width="210" height="25" as="geometry"/>
                </mxCell>
                <mxCell id="78" value="idProprietaire FK INT" style="text;html=1;strokeColor=none;fillColor=none;align=center;verticalAlign=middle;spacingLeft=4;spacingRight=4;overflow=hidden;rotatable=0;points=[[0,0.5],[1,0.5]];portConstraint=eastwest;" parent="19" vertex="1">
                    <mxGeometry y="654" width="210" height="25" as="geometry"/>
                </mxCell>
                <mxCell id="61" value="Reservation" style="swimlane;fontStyle=1;align=center;verticalAlign=middle;childLayout=stackLayout;horizontal=1;startSize=29;horizontalStack=0;resizeParent=1;resizeParentMax=0;resizeLast=0;collapsible=0;marginBottom=0;html=1;fillColor=#a20025;fontColor=#ffffff;strokeColor=#6F0000;" parent="1" vertex="1">
                    <mxGeometry x="320" y="770" width="260" height="304" as="geometry"/>
                </mxCell>
                <mxCell id="62" value="idReservation INT" style="text;html=1;strokeColor=none;fillColor=none;align=center;verticalAlign=middle;spacingLeft=4;spacingRight=4;overflow=hidden;rotatable=0;points=[[0,0.5],[1,0.5]];portConstraint=eastwest;fontColor=#FFFF33;" parent="61" vertex="1">
                    <mxGeometry y="29" width="260" height="25" as="geometry"/>
                </mxCell>
                <mxCell id="93" value="checkIn DATETIME" style="text;html=1;strokeColor=none;fillColor=none;align=center;verticalAlign=middle;spacingLeft=4;spacingRight=4;overflow=hidden;rotatable=0;points=[[0,0.5],[1,0.5]];portConstraint=eastwest;" parent="61" vertex="1">
                    <mxGeometry y="54" width="260" height="25" as="geometry"/>
                </mxCell>
                <mxCell id="94" value="checkOut DATETIME" style="text;html=1;strokeColor=none;fillColor=none;align=center;verticalAlign=middle;spacingLeft=4;spacingRight=4;overflow=hidden;rotatable=0;points=[[0,0.5],[1,0.5]];portConstraint=eastwest;" parent="61" vertex="1">
                    <mxGeometry y="79" width="260" height="25" as="geometry"/>
                </mxCell>
                <mxCell id="86" value="adulte TINYINT" style="text;html=1;strokeColor=none;fillColor=none;align=center;verticalAlign=middle;spacingLeft=4;spacingRight=4;overflow=hidden;rotatable=0;points=[[0,0.5],[1,0.5]];portConstraint=eastwest;" parent="61" vertex="1">
                    <mxGeometry y="104" width="260" height="25" as="geometry"/>
                </mxCell>
                <mxCell id="85" value="enfant TINYINT" style="text;html=1;strokeColor=none;fillColor=none;align=center;verticalAlign=middle;spacingLeft=4;spacingRight=4;overflow=hidden;rotatable=0;points=[[0,0.5],[1,0.5]];portConstraint=eastwest;" parent="61" vertex="1">
                    <mxGeometry y="129" width="260" height="25" as="geometry"/>
                </mxCell>
                <mxCell id="123" value="assurance BIT" style="text;html=1;strokeColor=none;fillColor=none;align=center;verticalAlign=middle;spacingLeft=4;spacingRight=4;overflow=hidden;rotatable=0;points=[[0,0.5],[1,0.5]];portConstraint=eastwest;" parent="61" vertex="1">
                    <mxGeometry y="154" width="260" height="25" as="geometry"/>
                </mxCell>
                <mxCell id="147" value="dateAnnulation DATE NULL" style="text;html=1;strokeColor=none;fillColor=none;align=center;verticalAlign=middle;spacingLeft=4;spacingRight=4;overflow=hidden;rotatable=0;points=[[0,0.5],[1,0.5]];portConstraint=eastwest;" parent="61" vertex="1">
                    <mxGeometry y="179" width="260" height="25" as="geometry"/>
                </mxCell>
                <mxCell id="367" value="annulationProprietaire BIT NULL" style="text;html=1;strokeColor=none;fillColor=none;align=center;verticalAlign=middle;spacingLeft=4;spacingRight=4;overflow=hidden;rotatable=0;points=[[0,0.5],[1,0.5]];portConstraint=eastwest;" parent="61" vertex="1">
                    <mxGeometry y="204" width="260" height="25" as="geometry"/>
                </mxCell>
                <mxCell id="65" value="idIndisponible FK" style="text;html=1;strokeColor=none;fillColor=none;align=center;verticalAlign=middle;spacingLeft=4;spacingRight=4;overflow=hidden;rotatable=0;points=[[0,0.5],[1,0.5]];portConstraint=eastwest;" parent="61" vertex="1">
                    <mxGeometry y="229" width="260" height="25" as="geometry"/>
                </mxCell>
                <mxCell id="63" value="idLogement INT" style="text;html=1;strokeColor=none;fillColor=none;align=center;verticalAlign=middle;spacingLeft=4;spacingRight=4;overflow=hidden;rotatable=0;points=[[0,0.5],[1,0.5]];portConstraint=eastwest;" parent="61" vertex="1">
                    <mxGeometry y="254" width="260" height="25" as="geometry"/>
                </mxCell>
                <mxCell id="64" value="idClient INT" style="text;html=1;strokeColor=none;fillColor=none;align=center;verticalAlign=middle;spacingLeft=4;spacingRight=4;overflow=hidden;rotatable=0;points=[[0,0.5],[1,0.5]];portConstraint=eastwest;" parent="61" vertex="1">
                    <mxGeometry y="279" width="260" height="25" as="geometry"/>
                </mxCell>
                <mxCell id="79" style="edgeStyle=none;html=1;exitX=1;exitY=0.5;exitDx=0;exitDy=0;entryX=0;entryY=0.5;entryDx=0;entryDy=0;" parent="1" source="11" target="46" edge="1">
                    <mxGeometry relative="1" as="geometry"/>
                </mxCell>
                <mxCell id="81" style="edgeStyle=none;html=1;exitX=0.982;exitY=1.074;exitDx=0;exitDy=0;entryX=0;entryY=0;entryDx=0;entryDy=0;exitPerimeter=0;" parent="1" source="9" target="61" edge="1">
                    <mxGeometry relative="1" as="geometry"/>
                </mxCell>
                <mxCell id="82" style="edgeStyle=none;html=1;entryX=0.75;entryY=0;entryDx=0;entryDy=0;exitX=0.399;exitY=1.123;exitDx=0;exitDy=0;exitPerimeter=0;" parent="1" source="78" target="61" edge="1">
                    <mxGeometry relative="1" as="geometry">
                        <mxPoint x="450" y="500" as="sourcePoint"/>
                    </mxGeometry>
                </mxCell>
                <mxCell id="87" value="Indisponible" style="swimlane;fontStyle=1;align=center;verticalAlign=middle;childLayout=stackLayout;horizontal=1;startSize=29;horizontalStack=0;resizeParent=1;resizeParentMax=0;resizeLast=0;collapsible=0;marginBottom=0;html=1;fillColor=#a20025;fontColor=#ffffff;strokeColor=#6F0000;" parent="1" vertex="1">
                    <mxGeometry x="640" y="740" width="160" height="129" as="geometry"/>
                </mxCell>
                <mxCell id="88" value="idIndisponible INT" style="text;html=1;strokeColor=none;fillColor=none;align=center;verticalAlign=middle;spacingLeft=4;spacingRight=4;overflow=hidden;rotatable=0;points=[[0,0.5],[1,0.5]];portConstraint=eastwest;fontColor=#FFFF33;" parent="87" vertex="1">
                    <mxGeometry y="29" width="160" height="25" as="geometry"/>
                </mxCell>
                <mxCell id="112" value="idLogement FK INT" style="text;html=1;strokeColor=none;fillColor=none;align=center;verticalAlign=middle;spacingLeft=4;spacingRight=4;overflow=hidden;rotatable=0;points=[[0,0.5],[1,0.5]];portConstraint=eastwest;" parent="87" vertex="1">
                    <mxGeometry y="54" width="160" height="25" as="geometry"/>
                </mxCell>
                <mxCell id="89" value="dateCommencement DATE" style="text;html=1;strokeColor=none;fillColor=none;align=center;verticalAlign=middle;spacingLeft=4;spacingRight=4;overflow=hidden;rotatable=0;points=[[0,0.5],[1,0.5]];portConstraint=eastwest;" parent="87" vertex="1">
                    <mxGeometry y="79" width="160" height="25" as="geometry"/>
                </mxCell>
                <mxCell id="90" value="dateFin DATE" style="text;html=1;strokeColor=none;fillColor=none;align=center;verticalAlign=middle;spacingLeft=4;spacingRight=4;overflow=hidden;rotatable=0;points=[[0,0.5],[1,0.5]];portConstraint=eastwest;" parent="87" vertex="1">
                    <mxGeometry y="104" width="160" height="25" as="geometry"/>
                </mxCell>
                <mxCell id="99" value="" style="edgeStyle=entityRelationEdgeStyle;fontSize=12;html=1;endArrow=ERmandOne;startArrow=ERmandOne;exitX=0.5;exitY=0;exitDx=0;exitDy=0;entryX=0.373;entryY=1.069;entryDx=0;entryDy=0;entryPerimeter=0;" parent="1" source="2" target="11" edge="1">
                    <mxGeometry width="100" height="100" relative="1" as="geometry">
                        <mxPoint x="370" y="430" as="sourcePoint"/>
                        <mxPoint x="122.97000000000003" y="228.875" as="targetPoint"/>
                    </mxGeometry>
                </mxCell>
                <mxCell id="100" style="edgeStyle=none;html=1;exitX=0.854;exitY=0.984;exitDx=0;exitDy=0;entryX=0;entryY=0;entryDx=0;entryDy=0;exitPerimeter=0;" parent="1" source="78" target="87" edge="1">
                    <mxGeometry relative="1" as="geometry">
                        <mxPoint x="580" y="396.5" as="sourcePoint"/>
                        <Array as="points"/>
                    </mxGeometry>
                </mxCell>
                <mxCell id="101" value="Facture" style="swimlane;fontStyle=1;align=center;verticalAlign=middle;childLayout=stackLayout;horizontal=1;startSize=29;horizontalStack=0;resizeParent=1;resizeParentMax=0;resizeLast=0;collapsible=0;marginBottom=0;html=1;fillColor=#a20025;fontColor=#ffffff;strokeColor=#6F0000;" parent="1" vertex="1">
                    <mxGeometry x="40" y="790" width="170" height="179" as="geometry"/>
                </mxCell>
                <mxCell id="102" value="idFacture INT" style="text;html=1;strokeColor=none;fillColor=none;align=center;verticalAlign=middle;spacingLeft=4;spacingRight=4;overflow=hidden;rotatable=0;points=[[0,0.5],[1,0.5]];portConstraint=eastwest;fontColor=#FFFF33;" parent="101" vertex="1">
                    <mxGeometry y="29" width="170" height="25" as="geometry"/>
                </mxCell>
                <mxCell id="104" value="idReservation INT" style="text;html=1;strokeColor=none;fillColor=none;align=center;verticalAlign=middle;spacingLeft=4;spacingRight=4;overflow=hidden;rotatable=0;points=[[0,0.5],[1,0.5]];portConstraint=eastwest;" parent="101" vertex="1">
                    <mxGeometry y="54" width="170" height="25" as="geometry"/>
                </mxCell>
                <mxCell id="110" value="prix MONEY" style="text;html=1;strokeColor=none;fillColor=none;align=center;verticalAlign=middle;spacingLeft=4;spacingRight=4;overflow=hidden;rotatable=0;points=[[0,0.5],[1,0.5]];portConstraint=eastwest;" parent="101" vertex="1">
                    <mxGeometry y="79" width="170" height="25" as="geometry"/>
                </mxCell>
                <mxCell id="184" value="prixSejour MONEY" style="text;html=1;strokeColor=none;fillColor=none;align=center;verticalAlign=middle;spacingLeft=4;spacingRight=4;overflow=hidden;rotatable=0;points=[[0,0.5],[1,0.5]];portConstraint=eastwest;" parent="101" vertex="1">
                    <mxGeometry y="104" width="170" height="25" as="geometry"/>
                </mxCell>
                <mxCell id="185" value="prixAnnulation MONEY NULL" style="text;html=1;strokeColor=none;fillColor=none;align=center;verticalAlign=middle;spacingLeft=4;spacingRight=4;overflow=hidden;rotatable=0;points=[[0,0.5],[1,0.5]];portConstraint=eastwest;" parent="101" vertex="1">
                    <mxGeometry y="129" width="170" height="25" as="geometry"/>
                </mxCell>
                <mxCell id="370" value="dateFacturation DATE" style="text;html=1;strokeColor=none;fillColor=none;align=center;verticalAlign=middle;spacingLeft=4;spacingRight=4;overflow=hidden;rotatable=0;points=[[0,0.5],[1,0.5]];portConstraint=eastwest;" vertex="1" parent="101">
                    <mxGeometry y="154" width="170" height="25" as="geometry"/>
                </mxCell>
                <mxCell id="113" style="edgeStyle=none;html=1;exitX=1;exitY=0.5;exitDx=0;exitDy=0;entryX=0;entryY=0.5;entryDx=0;entryDy=0;" parent="1" source="104" target="86" edge="1">
                    <mxGeometry relative="1" as="geometry"/>
                </mxCell>
                <mxCell id="124" value="Avis" style="swimlane;fontStyle=1;align=center;verticalAlign=middle;childLayout=stackLayout;horizontal=1;startSize=29;horizontalStack=0;resizeParent=1;resizeParentMax=0;resizeLast=0;collapsible=0;marginBottom=0;html=1;fillColor=#a20025;fontColor=#ffffff;strokeColor=#6F0000;" parent="1" vertex="1">
                    <mxGeometry x="234" y="460" width="180" height="154" as="geometry"/>
                </mxCell>
                <mxCell id="125" value="idAvis INT" style="text;html=1;strokeColor=none;fillColor=none;align=center;verticalAlign=middle;spacingLeft=4;spacingRight=4;overflow=hidden;rotatable=0;points=[[0,0.5],[1,0.5]];portConstraint=eastwest;fontColor=#FFFF33;" parent="124" vertex="1">
                    <mxGeometry y="29" width="180" height="25" as="geometry"/>
                </mxCell>
                <mxCell id="195" value="note TINYINT" style="text;html=1;strokeColor=none;fillColor=none;align=center;verticalAlign=middle;spacingLeft=4;spacingRight=4;overflow=hidden;rotatable=0;points=[[0,0.5],[1,0.5]];portConstraint=eastwest;" parent="124" vertex="1">
                    <mxGeometry y="54" width="180" height="25" as="geometry"/>
                </mxCell>
                <mxCell id="126" value="idLogement FK INT" style="text;html=1;strokeColor=none;fillColor=none;align=center;verticalAlign=middle;spacingLeft=4;spacingRight=4;overflow=hidden;rotatable=0;points=[[0,0.5],[1,0.5]];portConstraint=eastwest;" parent="124" vertex="1">
                    <mxGeometry y="79" width="180" height="25" as="geometry"/>
                </mxCell>
                <mxCell id="127" value="idClient FK INT" style="text;html=1;strokeColor=none;fillColor=none;align=center;verticalAlign=middle;spacingLeft=4;spacingRight=4;overflow=hidden;rotatable=0;points=[[0,0.5],[1,0.5]];portConstraint=eastwest;" parent="124" vertex="1">
                    <mxGeometry y="104" width="180" height="25" as="geometry"/>
                </mxCell>
                <mxCell id="128" value="message NVARCHAR(MAX)" style="text;html=1;strokeColor=none;fillColor=none;align=center;verticalAlign=middle;spacingLeft=4;spacingRight=4;overflow=hidden;rotatable=0;points=[[0,0.5],[1,0.5]];portConstraint=eastwest;" parent="124" vertex="1">
                    <mxGeometry y="129" width="180" height="25" as="geometry"/>
                </mxCell>
                <mxCell id="134" value="" style="endArrow=classic;html=1;startArrow=none;exitX=0;exitY=0.5;exitDx=0;exitDy=0;entryX=1;entryY=0.5;entryDx=0;entryDy=0;" parent="1" source="169" target="195" edge="1">
                    <mxGeometry width="50" height="50" relative="1" as="geometry">
                        <mxPoint x="390" y="500" as="sourcePoint"/>
                        <mxPoint x="570" y="760" as="targetPoint"/>
                    </mxGeometry>
                </mxCell>
                <mxCell id="136" value="TypeLogement" style="swimlane;fontStyle=1;align=center;verticalAlign=middle;childLayout=stackLayout;horizontal=1;startSize=29;horizontalStack=0;resizeParent=1;resizeParentMax=0;resizeLast=0;collapsible=0;marginBottom=0;html=1;fillColor=#008a00;fontColor=#ffffff;strokeColor=#005700;" parent="1" vertex="1">
                    <mxGeometry x="660" y="90" width="150" height="79" as="geometry"/>
                </mxCell>
                <mxCell id="137" value="idTypeLogement INT" style="text;html=1;strokeColor=none;fillColor=none;align=center;verticalAlign=middle;spacingLeft=4;spacingRight=4;overflow=hidden;rotatable=0;points=[[0,0.5],[1,0.5]];portConstraint=eastwest;fontColor=#FFFF33;" parent="136" vertex="1">
                    <mxGeometry y="29" width="150" height="25" as="geometry"/>
                </mxCell>
                <mxCell id="144" value="nom NVARCHAR(50)" style="text;html=1;strokeColor=none;fillColor=none;align=center;verticalAlign=middle;spacingLeft=4;spacingRight=4;overflow=hidden;rotatable=0;points=[[0,0.5],[1,0.5]];portConstraint=eastwest;" parent="136" vertex="1">
                    <mxGeometry y="54" width="150" height="25" as="geometry"/>
                </mxCell>
                <mxCell id="145" style="edgeStyle=none;html=1;exitX=1;exitY=0.5;exitDx=0;exitDy=0;entryX=0;entryY=0.5;entryDx=0;entryDy=0;" parent="1" source="347" target="137" edge="1">
                    <mxGeometry relative="1" as="geometry">
                        <mxPoint x="640" y="383" as="sourcePoint"/>
                        <mxPoint x="690" y="380" as="targetPoint"/>
                    </mxGeometry>
                </mxCell>
                <mxCell id="149" value="HEREDITAIRE" style="text;html=1;align=center;verticalAlign=middle;resizable=0;points=[];autosize=1;strokeColor=none;fillColor=none;fontColor=#FF0080;" parent="1" vertex="1">
                    <mxGeometry x="150" y="270" width="100" height="30" as="geometry"/>
                </mxCell>
                <mxCell id="150" value="" style="endArrow=none;dashed=1;html=1;exitX=0.25;exitY=0;exitDx=0;exitDy=0;entryX=0.438;entryY=1.219;entryDx=0;entryDy=0;entryPerimeter=0;" parent="1" source="61" target="128" edge="1">
                    <mxGeometry width="50" height="50" relative="1" as="geometry">
                        <mxPoint x="380" y="791.5" as="sourcePoint"/>
                        <mxPoint x="636.6399999999999" y="706.3499999999999" as="targetPoint"/>
                    </mxGeometry>
                </mxCell>
                <mxCell id="188" style="edgeStyle=none;html=1;entryX=0;entryY=0.5;entryDx=0;entryDy=0;exitX=1;exitY=0.5;exitDx=0;exitDy=0;" parent="1" source="5" target="126" edge="1">
                    <mxGeometry relative="1" as="geometry">
                        <mxPoint x="380" y="670" as="sourcePoint"/>
                        <mxPoint x="370" y="850" as="targetPoint"/>
                    </mxGeometry>
                </mxCell>
                <mxCell id="198" style="edgeStyle=none;html=1;entryX=1;entryY=0.5;entryDx=0;entryDy=0;exitX=0;exitY=0.5;exitDx=0;exitDy=0;" parent="1" source="89" target="93" edge="1">
                    <mxGeometry relative="1" as="geometry">
                        <mxPoint x="527.8300000000002" y="714.575" as="sourcePoint"/>
                        <mxPoint x="525" y="780" as="targetPoint"/>
                    </mxGeometry>
                </mxCell>
                <mxCell id="199" value="Client" style="swimlane;fontStyle=1;align=center;verticalAlign=middle;childLayout=stackLayout;horizontal=1;startSize=29;horizontalStack=0;resizeParent=1;resizeParentMax=0;resizeLast=0;collapsible=0;marginBottom=0;html=1;fillColor=#0050ef;fontColor=#ffffff;strokeColor=#001DBC;" parent="1" vertex="1">
                    <mxGeometry x="840" y="412.5" width="180" height="204" as="geometry"/>
                </mxCell>
                <mxCell id="200" value="idClient: INT" style="text;html=1;strokeColor=none;fillColor=none;align=center;verticalAlign=middle;spacingLeft=4;spacingRight=4;overflow=hidden;rotatable=0;points=[[0,0.5],[1,0.5]];portConstraint=eastwest;fontColor=#FFFF33;" parent="199" vertex="1">
                    <mxGeometry y="29" width="180" height="25" as="geometry"/>
                </mxCell>
                <mxCell id="201" value="nom NVARCHAR(50)" style="text;html=1;strokeColor=none;fillColor=none;align=center;verticalAlign=middle;spacingLeft=4;spacingRight=4;overflow=hidden;rotatable=0;points=[[0,0.5],[1,0.5]];portConstraint=eastwest;" parent="199" vertex="1">
                    <mxGeometry y="54" width="180" height="25" as="geometry"/>
                </mxCell>
                <mxCell id="202" value="prenom NVARCHAR(50)" style="text;html=1;strokeColor=none;fillColor=none;align=center;verticalAlign=middle;spacingLeft=4;spacingRight=4;overflow=hidden;rotatable=0;points=[[0,0.5],[1,0.5]];portConstraint=eastwest;" parent="199" vertex="1">
                    <mxGeometry y="79" width="180" height="25" as="geometry"/>
                </mxCell>
                <mxCell id="203" value="email NVARCHAR(255)" style="text;html=1;strokeColor=none;fillColor=none;align=center;verticalAlign=middle;spacingLeft=4;spacingRight=4;overflow=hidden;rotatable=0;points=[[0,0.5],[1,0.5]];portConstraint=eastwest;" parent="199" vertex="1">
                    <mxGeometry y="104" width="180" height="25" as="geometry"/>
                </mxCell>
                <mxCell id="204" value="pays NVARCHAR(50)" style="text;html=1;strokeColor=none;fillColor=none;align=center;verticalAlign=middle;spacingLeft=4;spacingRight=4;overflow=hidden;rotatable=0;points=[[0,0.5],[1,0.5]];portConstraint=eastwest;" parent="199" vertex="1">
                    <mxGeometry y="129" width="180" height="25" as="geometry"/>
                </mxCell>
                <mxCell id="205" value="telephone NVARCHAR(20)" style="text;html=1;strokeColor=none;fillColor=none;align=center;verticalAlign=middle;spacingLeft=4;spacingRight=4;overflow=hidden;rotatable=0;points=[[0,0.5],[1,0.5]];portConstraint=eastwest;" parent="199" vertex="1">
                    <mxGeometry y="154" width="180" height="25" as="geometry"/>
                </mxCell>
                <mxCell id="206" value="password VARBINARY(64)" style="text;html=1;strokeColor=none;fillColor=none;align=center;verticalAlign=middle;spacingLeft=4;spacingRight=4;overflow=hidden;rotatable=0;points=[[0,0.5],[1,0.5]];portConstraint=eastwest;" parent="199" vertex="1">
                    <mxGeometry y="179" width="180" height="25" as="geometry"/>
                </mxCell>
                <mxCell id="207" value="Proprietaire" style="swimlane;fontStyle=1;align=center;verticalAlign=middle;childLayout=stackLayout;horizontal=1;startSize=29;horizontalStack=0;resizeParent=1;resizeParentMax=0;resizeLast=0;collapsible=0;marginBottom=0;html=1;fillColor=#008a00;fontColor=#ffffff;strokeColor=#005700;" parent="1" vertex="1">
                    <mxGeometry x="900" y="163.5" width="190" height="54" as="geometry"/>
                </mxCell>
                <mxCell id="208" value="idClient : INT" style="text;html=1;strokeColor=none;fillColor=none;align=center;verticalAlign=middle;spacingLeft=4;spacingRight=4;overflow=hidden;rotatable=0;points=[[0,0.5],[1,0.5]];portConstraint=eastwest;fontColor=#FFFF33;" parent="207" vertex="1">
                    <mxGeometry y="29" width="190" height="25" as="geometry"/>
                </mxCell>
                <mxCell id="209" value="Logement" style="swimlane;fontStyle=1;align=center;verticalAlign=middle;childLayout=stackLayout;horizontal=1;startSize=29;horizontalStack=0;resizeParent=1;resizeParentMax=0;resizeLast=0;collapsible=0;marginBottom=0;html=1;fillColor=#008a00;fontColor=#ffffff;strokeColor=#005700;" parent="1" vertex="1">
                    <mxGeometry x="1310" y="6" width="190" height="629" as="geometry"/>
                </mxCell>
                <mxCell id="210" value="idLogment INT" style="text;html=1;strokeColor=none;fillColor=none;align=center;verticalAlign=middle;spacingLeft=4;spacingRight=4;overflow=hidden;rotatable=0;points=[[0,0.5],[1,0.5]];portConstraint=eastwest;fontColor=#FFFF00;" parent="209" vertex="1">
                    <mxGeometry y="29" width="190" height="25" as="geometry"/>
                </mxCell>
                <mxCell id="332" value="nom NVARCHAR(255)" style="text;html=1;strokeColor=none;fillColor=none;align=center;verticalAlign=middle;spacingLeft=4;spacingRight=4;overflow=hidden;rotatable=0;points=[[0,0.5],[1,0.5]];portConstraint=eastwest;" parent="209" vertex="1">
                    <mxGeometry y="54" width="190" height="25" as="geometry"/>
                </mxCell>
                <mxCell id="212" value="boite NVARCHAR(50)" style="text;html=1;strokeColor=none;fillColor=none;align=center;verticalAlign=middle;spacingLeft=4;spacingRight=4;overflow=hidden;rotatable=0;points=[[0,0.5],[1,0.5]];portConstraint=eastwest;" parent="209" vertex="1">
                    <mxGeometry y="79" width="190" height="25" as="geometry"/>
                </mxCell>
                <mxCell id="213" value="numero NVARCHAR(5)" style="text;html=1;strokeColor=none;fillColor=none;align=center;verticalAlign=middle;spacingLeft=4;spacingRight=4;overflow=hidden;rotatable=0;points=[[0,0.5],[1,0.5]];portConstraint=eastwest;" parent="209" vertex="1">
                    <mxGeometry y="104" width="190" height="25" as="geometry"/>
                </mxCell>
                <mxCell id="214" value="rue NVARCHAR(250)" style="text;html=1;strokeColor=none;fillColor=none;align=center;verticalAlign=middle;spacingLeft=4;spacingRight=4;overflow=hidden;rotatable=0;points=[[0,0.5],[1,0.5]];portConstraint=eastwest;" parent="209" vertex="1">
                    <mxGeometry y="129" width="190" height="25" as="geometry"/>
                </mxCell>
                <mxCell id="215" value="pays NVARCHAR(50)" style="text;html=1;strokeColor=none;fillColor=none;align=center;verticalAlign=middle;spacingLeft=4;spacingRight=4;overflow=hidden;rotatable=0;points=[[0,0.5],[1,0.5]];portConstraint=eastwest;" parent="209" vertex="1">
                    <mxGeometry y="154" width="190" height="25" as="geometry"/>
                </mxCell>
                <mxCell id="216" value="coordLatitude DECIMAL" style="text;html=1;strokeColor=none;fillColor=none;align=center;verticalAlign=middle;spacingLeft=4;spacingRight=4;overflow=hidden;rotatable=0;points=[[0,0.5],[1,0.5]];portConstraint=eastwest;fontColor=#FFFFFF;" parent="209" vertex="1">
                    <mxGeometry y="179" width="190" height="25" as="geometry"/>
                </mxCell>
                <mxCell id="375" value="coordLongitude DECIMAL" style="text;html=1;strokeColor=none;fillColor=none;align=center;verticalAlign=middle;spacingLeft=4;spacingRight=4;overflow=hidden;rotatable=0;points=[[0,0.5],[1,0.5]];portConstraint=eastwest;fontColor=#FFFFFF;" vertex="1" parent="209">
                    <mxGeometry y="204" width="190" height="25" as="geometry"/>
                </mxCell>
                <mxCell id="217" value="descriptionCourte NVARCHAR(140)" style="text;html=1;strokeColor=none;fillColor=none;align=center;verticalAlign=middle;spacingLeft=4;spacingRight=4;overflow=hidden;rotatable=0;points=[[0,0.5],[1,0.5]];portConstraint=eastwest;" parent="209" vertex="1">
                    <mxGeometry y="229" width="190" height="25" as="geometry"/>
                </mxCell>
                <mxCell id="218" value="descriptionLongue NVARCHAR(MAX)" style="text;html=1;strokeColor=none;fillColor=none;align=center;verticalAlign=middle;spacingLeft=4;spacingRight=4;overflow=hidden;rotatable=0;points=[[0,0.5],[1,0.5]];portConstraint=eastwest;" parent="209" vertex="1">
                    <mxGeometry y="254" width="190" height="25" as="geometry"/>
                </mxCell>
                <mxCell id="220" value="chambre TINYINT" style="text;html=1;strokeColor=none;fillColor=none;align=center;verticalAlign=middle;spacingLeft=4;spacingRight=4;overflow=hidden;rotatable=0;points=[[0,0.5],[1,0.5]];portConstraint=eastwest;" parent="209" vertex="1">
                    <mxGeometry y="279" width="190" height="25" as="geometry"/>
                </mxCell>
                <mxCell id="219" value="piece TINYINT" style="text;html=1;strokeColor=none;fillColor=none;align=center;verticalAlign=middle;spacingLeft=4;spacingRight=4;overflow=hidden;rotatable=0;points=[[0,0.5],[1,0.5]];portConstraint=eastwest;" parent="209" vertex="1">
                    <mxGeometry y="304" width="190" height="25" as="geometry"/>
                </mxCell>
                <mxCell id="221" value="capacitÃ© TINYINT" style="text;html=1;strokeColor=none;fillColor=none;align=center;verticalAlign=middle;spacingLeft=4;spacingRight=4;overflow=hidden;rotatable=0;points=[[0,0.5],[1,0.5]];portConstraint=eastwest;" parent="209" vertex="1">
                    <mxGeometry y="329" width="190" height="25" as="geometry"/>
                </mxCell>
                <mxCell id="225" value="salledeBain TINYINT" style="text;html=1;strokeColor=none;fillColor=none;align=center;verticalAlign=middle;spacingLeft=4;spacingRight=4;overflow=hidden;rotatable=0;points=[[0,0.5],[1,0.5]];portConstraint=eastwest;" parent="209" vertex="1">
                    <mxGeometry y="354" width="190" height="25" as="geometry"/>
                </mxCell>
                <mxCell id="226" value="wc TINYINT" style="text;html=1;strokeColor=none;fillColor=none;align=center;verticalAlign=middle;spacingLeft=4;spacingRight=4;overflow=hidden;rotatable=0;points=[[0,0.5],[1,0.5]];portConstraint=eastwest;" parent="209" vertex="1">
                    <mxGeometry y="379" width="190" height="25" as="geometry"/>
                </mxCell>
                <mxCell id="227" value="balcon BIT" style="text;html=1;strokeColor=none;fillColor=none;align=center;verticalAlign=middle;spacingLeft=4;spacingRight=4;overflow=hidden;rotatable=0;points=[[0,0.5],[1,0.5]];portConstraint=eastwest;" parent="209" vertex="1">
                    <mxGeometry y="404" width="190" height="25" as="geometry"/>
                </mxCell>
                <mxCell id="228" value="airConditionne BIT" style="text;html=1;strokeColor=none;fillColor=none;align=center;verticalAlign=middle;spacingLeft=4;spacingRight=4;overflow=hidden;rotatable=0;points=[[0,0.5],[1,0.5]];portConstraint=eastwest;" parent="209" vertex="1">
                    <mxGeometry y="429" width="190" height="25" as="geometry"/>
                </mxCell>
                <mxCell id="234" value="wifi BIT" style="text;html=1;strokeColor=none;fillColor=none;align=center;verticalAlign=middle;spacingLeft=4;spacingRight=4;overflow=hidden;rotatable=0;points=[[0,0.5],[1,0.5]];portConstraint=eastwest;" parent="209" vertex="1">
                    <mxGeometry y="454" width="190" height="25" as="geometry"/>
                </mxCell>
                <mxCell id="229" value="minibar BIT" style="text;html=1;strokeColor=none;fillColor=none;align=center;verticalAlign=middle;spacingLeft=4;spacingRight=4;overflow=hidden;rotatable=0;points=[[0,0.5],[1,0.5]];portConstraint=eastwest;" parent="209" vertex="1">
                    <mxGeometry y="479" width="190" height="25" as="geometry"/>
                </mxCell>
                <mxCell id="336" value="animaux BIT" style="text;html=1;strokeColor=none;fillColor=none;align=center;verticalAlign=middle;spacingLeft=4;spacingRight=4;overflow=hidden;rotatable=0;points=[[0,0.5],[1,0.5]];portConstraint=eastwest;" parent="209" vertex="1">
                    <mxGeometry y="504" width="190" height="25" as="geometry"/>
                </mxCell>
                <mxCell id="230" value="piscine BIT" style="text;html=1;strokeColor=none;fillColor=none;align=center;verticalAlign=middle;spacingLeft=4;spacingRight=4;overflow=hidden;rotatable=0;points=[[0,0.5],[1,0.5]];portConstraint=eastwest;" parent="209" vertex="1">
                    <mxGeometry y="529" width="190" height="25" as="geometry"/>
                </mxCell>
                <mxCell id="231" value="voiturier BIT" style="text;html=1;strokeColor=none;fillColor=none;align=center;verticalAlign=middle;spacingLeft=4;spacingRight=4;overflow=hidden;rotatable=0;points=[[0,0.5],[1,0.5]];portConstraint=eastwest;" parent="209" vertex="1">
                    <mxGeometry y="554" width="190" height="25" as="geometry"/>
                </mxCell>
                <mxCell id="232" value="roomService BIT" style="text;html=1;strokeColor=none;fillColor=none;align=center;verticalAlign=middle;spacingLeft=4;spacingRight=4;overflow=hidden;rotatable=0;points=[[0,0.5],[1,0.5]];portConstraint=eastwest;" parent="209" vertex="1">
                    <mxGeometry y="579" width="190" height="25" as="geometry"/>
                </mxCell>
                <mxCell id="233" value="prix MONEY" style="text;html=1;strokeColor=none;fillColor=none;align=center;verticalAlign=middle;spacingLeft=4;spacingRight=4;overflow=hidden;rotatable=0;points=[[0,0.5],[1,0.5]];portConstraint=eastwest;" parent="209" vertex="1">
                    <mxGeometry y="604" width="190" height="25" as="geometry"/>
                </mxCell>
                <mxCell id="236" value="Reservation" style="swimlane;fontStyle=1;align=center;verticalAlign=middle;childLayout=stackLayout;horizontal=1;startSize=29;horizontalStack=0;resizeParent=1;resizeParentMax=0;resizeLast=0;collapsible=0;marginBottom=0;html=1;fillColor=#a20025;fontColor=#ffffff;strokeColor=#6F0000;" parent="1" vertex="1">
                    <mxGeometry x="1150" y="814.5" width="260" height="229" as="geometry"/>
                </mxCell>
                <mxCell id="237" value="idReservation INT" style="text;html=1;strokeColor=none;fillColor=none;align=center;verticalAlign=middle;spacingLeft=4;spacingRight=4;overflow=hidden;rotatable=0;points=[[0,0.5],[1,0.5]];portConstraint=eastwest;fontColor=#FFFF33;" parent="236" vertex="1">
                    <mxGeometry y="29" width="260" height="25" as="geometry"/>
                </mxCell>
                <mxCell id="241" value="checkIn DATETIME" style="text;html=1;strokeColor=none;fillColor=none;align=center;verticalAlign=middle;spacingLeft=4;spacingRight=4;overflow=hidden;rotatable=0;points=[[0,0.5],[1,0.5]];portConstraint=eastwest;" parent="236" vertex="1">
                    <mxGeometry y="54" width="260" height="25" as="geometry"/>
                </mxCell>
                <mxCell id="242" value="checkOut DATETIME" style="text;html=1;strokeColor=none;fillColor=none;align=center;verticalAlign=middle;spacingLeft=4;spacingRight=4;overflow=hidden;rotatable=0;points=[[0,0.5],[1,0.5]];portConstraint=eastwest;" parent="236" vertex="1">
                    <mxGeometry y="79" width="260" height="25" as="geometry"/>
                </mxCell>
                <mxCell id="222" value="adulte TINYINT" style="text;html=1;strokeColor=none;fillColor=none;align=center;verticalAlign=middle;spacingLeft=4;spacingRight=4;overflow=hidden;rotatable=0;points=[[0,0.5],[1,0.5]];portConstraint=eastwest;" parent="236" vertex="1">
                    <mxGeometry y="104" width="260" height="25" as="geometry"/>
                </mxCell>
                <mxCell id="223" value="enfant TINYINT" style="text;html=1;strokeColor=none;fillColor=none;align=center;verticalAlign=middle;spacingLeft=4;spacingRight=4;overflow=hidden;rotatable=0;points=[[0,0.5],[1,0.5]];portConstraint=eastwest;" parent="236" vertex="1">
                    <mxGeometry y="129" width="260" height="25" as="geometry"/>
                </mxCell>
                <mxCell id="243" value="assurance BIT" style="text;html=1;strokeColor=none;fillColor=none;align=center;verticalAlign=middle;spacingLeft=4;spacingRight=4;overflow=hidden;rotatable=0;points=[[0,0.5],[1,0.5]];portConstraint=eastwest;" parent="236" vertex="1">
                    <mxGeometry y="154" width="260" height="25" as="geometry"/>
                </mxCell>
                <mxCell id="244" value="dateAnnulation DATE NULL" style="text;html=1;strokeColor=none;fillColor=none;align=center;verticalAlign=middle;spacingLeft=4;spacingRight=4;overflow=hidden;rotatable=0;points=[[0,0.5],[1,0.5]];portConstraint=eastwest;" parent="236" vertex="1">
                    <mxGeometry y="179" width="260" height="25" as="geometry"/>
                </mxCell>
                <mxCell id="365" value="annulationProprietaire BIT NULL" style="text;html=1;strokeColor=none;fillColor=none;align=center;verticalAlign=middle;spacingLeft=4;spacingRight=4;overflow=hidden;rotatable=0;points=[[0,0.5],[1,0.5]];portConstraint=eastwest;" parent="236" vertex="1">
                    <mxGeometry y="204" width="260" height="25" as="geometry"/>
                </mxCell>
                <mxCell id="245" style="edgeStyle=none;html=1;exitX=1;exitY=0.5;exitDx=0;exitDy=0;entryX=0;entryY=0.5;entryDx=0;entryDy=0;startArrow=none;endArrow=none;endFill=0;" parent="1" source="282" target="215" edge="1">
                    <mxGeometry relative="1" as="geometry"/>
                </mxCell>
                <mxCell id="246" style="edgeStyle=none;html=1;exitX=1;exitY=1;exitDx=0;exitDy=0;entryX=0;entryY=0;entryDx=0;entryDy=0;startArrow=none;endArrow=none;endFill=0;" parent="1" source="293" target="236" edge="1">
                    <mxGeometry relative="1" as="geometry"/>
                </mxCell>
                <mxCell id="247" style="edgeStyle=none;html=1;entryX=0.75;entryY=0;entryDx=0;entryDy=0;exitX=0.5;exitY=1;exitDx=0;exitDy=0;startArrow=none;endArrow=none;endFill=0;" parent="1" source="297" target="236" edge="1">
                    <mxGeometry relative="1" as="geometry">
                        <mxPoint x="1357.8300000000004" y="657.075" as="sourcePoint"/>
                    </mxGeometry>
                </mxCell>
                <mxCell id="248" value="Indisponible" style="swimlane;fontStyle=1;align=center;verticalAlign=middle;childLayout=stackLayout;horizontal=1;startSize=29;horizontalStack=0;resizeParent=1;resizeParentMax=0;resizeLast=0;collapsible=0;marginBottom=0;html=1;fillColor=#a20025;fontColor=#ffffff;strokeColor=#6F0000;" parent="1" vertex="1">
                    <mxGeometry x="1490" y="772.5" width="160" height="104" as="geometry"/>
                </mxCell>
                <mxCell id="249" value="idIndisponible INT" style="text;html=1;strokeColor=none;fillColor=none;align=center;verticalAlign=middle;spacingLeft=4;spacingRight=4;overflow=hidden;rotatable=0;points=[[0,0.5],[1,0.5]];portConstraint=eastwest;fontColor=#FFFF33;" parent="248" vertex="1">
                    <mxGeometry y="29" width="160" height="25" as="geometry"/>
                </mxCell>
                <mxCell id="251" value="dateCommencement DATE" style="text;html=1;strokeColor=none;fillColor=none;align=center;verticalAlign=middle;spacingLeft=4;spacingRight=4;overflow=hidden;rotatable=0;points=[[0,0.5],[1,0.5]];portConstraint=eastwest;" parent="248" vertex="1">
                    <mxGeometry y="54" width="160" height="25" as="geometry"/>
                </mxCell>
                <mxCell id="252" value="dateFin DATE" style="text;html=1;strokeColor=none;fillColor=none;align=center;verticalAlign=middle;spacingLeft=4;spacingRight=4;overflow=hidden;rotatable=0;points=[[0,0.5],[1,0.5]];portConstraint=eastwest;" parent="248" vertex="1">
                    <mxGeometry y="79" width="160" height="25" as="geometry"/>
                </mxCell>
                <mxCell id="253" value="" style="edgeStyle=entityRelationEdgeStyle;fontSize=12;html=1;endArrow=ERmandOne;startArrow=ERmandOne;exitX=0.5;exitY=0;exitDx=0;exitDy=0;entryX=0.373;entryY=1.069;entryDx=0;entryDy=0;entryPerimeter=0;" parent="1" source="199" target="208" edge="1">
                    <mxGeometry width="100" height="100" relative="1" as="geometry">
                        <mxPoint x="1210" y="407.5" as="sourcePoint"/>
                        <mxPoint x="962.97" y="206.375" as="targetPoint"/>
                    </mxGeometry>
                </mxCell>
                <mxCell id="254" style="edgeStyle=none;html=1;entryX=0;entryY=0;entryDx=0;entryDy=0;startArrow=none;endArrow=none;endFill=0;" parent="1" source="301" target="248" edge="1">
                    <mxGeometry relative="1" as="geometry">
                        <mxPoint x="1460" y="680" as="sourcePoint"/>
                        <Array as="points"/>
                    </mxGeometry>
                </mxCell>
                <mxCell id="255" value="Facture" style="swimlane;fontStyle=1;align=center;verticalAlign=middle;childLayout=stackLayout;horizontal=1;startSize=29;horizontalStack=0;resizeParent=1;resizeParentMax=0;resizeLast=0;collapsible=0;marginBottom=0;html=1;fillColor=#a20025;fontColor=#ffffff;strokeColor=#6F0000;" parent="1" vertex="1">
                    <mxGeometry x="855" y="765" width="170" height="154" as="geometry"/>
                </mxCell>
                <mxCell id="256" value="idFacture INT" style="text;html=1;strokeColor=none;fillColor=none;align=center;verticalAlign=middle;spacingLeft=4;spacingRight=4;overflow=hidden;rotatable=0;points=[[0,0.5],[1,0.5]];portConstraint=eastwest;fontColor=#FFFF33;" parent="255" vertex="1">
                    <mxGeometry y="29" width="170" height="25" as="geometry"/>
                </mxCell>
                <mxCell id="373" value="prix MONEY" style="text;html=1;strokeColor=none;fillColor=none;align=center;verticalAlign=middle;spacingLeft=4;spacingRight=4;overflow=hidden;rotatable=0;points=[[0,0.5],[1,0.5]];portConstraint=eastwest;" vertex="1" parent="255">
                    <mxGeometry y="54" width="170" height="25" as="geometry"/>
                </mxCell>
                <mxCell id="259" value="prixSejour MONEY" style="text;html=1;strokeColor=none;fillColor=none;align=center;verticalAlign=middle;spacingLeft=4;spacingRight=4;overflow=hidden;rotatable=0;points=[[0,0.5],[1,0.5]];portConstraint=eastwest;" parent="255" vertex="1">
                    <mxGeometry y="79" width="170" height="25" as="geometry"/>
                </mxCell>
                <mxCell id="260" value="prixAnnulation MONEY NULL" style="text;html=1;strokeColor=none;fillColor=none;align=center;verticalAlign=middle;spacingLeft=4;spacingRight=4;overflow=hidden;rotatable=0;points=[[0,0.5],[1,0.5]];portConstraint=eastwest;" parent="255" vertex="1">
                    <mxGeometry y="104" width="170" height="25" as="geometry"/>
                </mxCell>
                <mxCell id="371" value="dateFacturation DATE" style="text;html=1;strokeColor=none;fillColor=none;align=center;verticalAlign=middle;spacingLeft=4;spacingRight=4;overflow=hidden;rotatable=0;points=[[0,0.5],[1,0.5]];portConstraint=eastwest;" vertex="1" parent="255">
                    <mxGeometry y="129" width="170" height="25" as="geometry"/>
                </mxCell>
                <mxCell id="261" style="edgeStyle=none;html=1;exitX=1;exitY=0.5;exitDx=0;exitDy=0;entryX=0.008;entryY=-0.005;entryDx=0;entryDy=0;endArrow=none;endFill=0;startArrow=none;entryPerimeter=0;" parent="1" source="296" target="241" edge="1">
                    <mxGeometry relative="1" as="geometry">
                        <mxPoint x="1050" y="834" as="sourcePoint"/>
                        <mxPoint x="1160" y="814" as="targetPoint"/>
                    </mxGeometry>
                </mxCell>
                <mxCell id="262" value="Avis" style="swimlane;fontStyle=1;align=center;verticalAlign=middle;childLayout=stackLayout;horizontal=1;startSize=29;horizontalStack=0;resizeParent=1;resizeParentMax=0;resizeLast=0;collapsible=0;marginBottom=0;html=1;fillColor=#a20025;fontColor=#ffffff;strokeColor=#6F0000;" parent="1" vertex="1">
                    <mxGeometry x="1130" y="485" width="180" height="104" as="geometry"/>
                </mxCell>
                <mxCell id="263" value="idAvis INT" style="text;html=1;strokeColor=none;fillColor=none;align=center;verticalAlign=middle;spacingLeft=4;spacingRight=4;overflow=hidden;rotatable=0;points=[[0,0.5],[1,0.5]];portConstraint=eastwest;fontColor=#FFFF33;" parent="262" vertex="1">
                    <mxGeometry y="29" width="180" height="25" as="geometry"/>
                </mxCell>
                <mxCell id="266" value="note TINYINT" style="text;html=1;strokeColor=none;fillColor=none;align=center;verticalAlign=middle;spacingLeft=4;spacingRight=4;overflow=hidden;rotatable=0;points=[[0,0.5],[1,0.5]];portConstraint=eastwest;" parent="262" vertex="1">
                    <mxGeometry y="54" width="180" height="25" as="geometry"/>
                </mxCell>
                <mxCell id="267" value="message NVARCHAR(MAX)" style="text;html=1;strokeColor=none;fillColor=none;align=center;verticalAlign=middle;spacingLeft=4;spacingRight=4;overflow=hidden;rotatable=0;points=[[0,0.5],[1,0.5]];portConstraint=eastwest;" parent="262" vertex="1">
                    <mxGeometry y="79" width="180" height="25" as="geometry"/>
                </mxCell>
                <mxCell id="268" value="" style="endArrow=none;html=1;startArrow=none;exitX=0.5;exitY=1;exitDx=0;exitDy=0;endFill=0;" parent="1" source="287" target="262" edge="1">
                    <mxGeometry width="50" height="50" relative="1" as="geometry">
                        <mxPoint x="1230" y="477.5" as="sourcePoint"/>
                        <mxPoint x="1410" y="737.5" as="targetPoint"/>
                    </mxGeometry>
                </mxCell>
                <mxCell id="269" value="TypeLogement" style="swimlane;fontStyle=1;align=center;verticalAlign=middle;childLayout=stackLayout;horizontal=1;startSize=29;horizontalStack=0;resizeParent=1;resizeParentMax=0;resizeLast=0;collapsible=0;marginBottom=0;html=1;fillColor=#008a00;fontColor=#ffffff;strokeColor=#005700;" parent="1" vertex="1">
                    <mxGeometry x="1504" y="270" width="150" height="78" as="geometry"/>
                </mxCell>
                <mxCell id="270" value="idTypeLogement INT" style="text;html=1;strokeColor=none;fillColor=none;align=center;verticalAlign=middle;spacingLeft=4;spacingRight=4;overflow=hidden;rotatable=0;points=[[0,0.5],[1,0.5]];portConstraint=eastwest;fontColor=#FFFF33;" parent="269" vertex="1">
                    <mxGeometry y="29" width="150" height="24" as="geometry"/>
                </mxCell>
                <mxCell id="271" value="nom NVARCHAR(50)" style="text;html=1;strokeColor=none;fillColor=none;align=center;verticalAlign=middle;spacingLeft=4;spacingRight=4;overflow=hidden;rotatable=0;points=[[0,0.5],[1,0.5]];portConstraint=eastwest;" parent="269" vertex="1">
                    <mxGeometry y="53" width="150" height="25" as="geometry"/>
                </mxCell>
                <mxCell id="272" style="edgeStyle=none;html=1;exitX=0.5;exitY=1;exitDx=0;exitDy=0;entryX=0.5;entryY=0;entryDx=0;entryDy=0;endArrow=none;endFill=0;startArrow=none;" parent="1" source="283" target="269" edge="1">
                    <mxGeometry relative="1" as="geometry">
                        <mxPoint x="1460" y="66.5" as="sourcePoint"/>
                        <mxPoint x="1530" y="357.5" as="targetPoint"/>
                    </mxGeometry>
                </mxCell>
                <mxCell id="273" value="HEREDITAIRE" style="text;html=1;align=center;verticalAlign=middle;resizable=0;points=[];autosize=1;strokeColor=none;fillColor=none;fontColor=#FF0080;" parent="1" vertex="1">
                    <mxGeometry x="960" y="270" width="100" height="30" as="geometry"/>
                </mxCell>
                <mxCell id="275" style="edgeStyle=none;html=1;entryX=0;entryY=0.25;entryDx=0;entryDy=0;exitX=1;exitY=0.5;exitDx=0;exitDy=0;startArrow=none;endArrow=none;endFill=0;" parent="1" source="305" target="262" edge="1">
                    <mxGeometry relative="1" as="geometry">
                        <mxPoint x="1220" y="647.5" as="sourcePoint"/>
                        <mxPoint x="1074" y="504" as="targetPoint"/>
                    </mxGeometry>
                </mxCell>
                <mxCell id="276" style="edgeStyle=none;html=1;entryX=1;entryY=0;entryDx=0;entryDy=0;exitX=0;exitY=0.5;exitDx=0;exitDy=0;startArrow=none;endArrow=none;endFill=0;" parent="1" source="308" target="236" edge="1">
                    <mxGeometry relative="1" as="geometry">
                        <mxPoint x="1367.8300000000002" y="692.075" as="sourcePoint"/>
                        <mxPoint x="1365" y="757.5" as="targetPoint"/>
                    </mxGeometry>
                </mxCell>
                <mxCell id="279" value="1,n" style="text;html=1;align=center;verticalAlign=middle;resizable=0;points=[];autosize=1;strokeColor=none;fillColor=none;fontColor=#FFFFFF;" parent="1" vertex="1">
                    <mxGeometry x="1120" y="159" width="40" height="30" as="geometry"/>
                </mxCell>
                <mxCell id="280" value="1,n" style="text;html=1;align=center;verticalAlign=middle;resizable=0;points=[];autosize=1;strokeColor=none;fillColor=none;fontColor=#FFFFFF;" parent="1" vertex="1">
                    <mxGeometry x="1520" y="240" width="40" height="30" as="geometry"/>
                </mxCell>
                <mxCell id="285" value="" style="edgeStyle=none;html=1;exitX=1;exitY=0.5;exitDx=0;exitDy=0;entryX=0;entryY=0.5;entryDx=0;entryDy=0;endArrow=none;" parent="1" source="208" target="282" edge="1">
                    <mxGeometry relative="1" as="geometry">
                        <mxPoint x="1120" y="171.5000000000001" as="sourcePoint"/>
                        <mxPoint x="1310" y="189.0000000000001" as="targetPoint"/>
                    </mxGeometry>
                </mxCell>
                <mxCell id="282" value="possede" style="ellipse;fontColor=#FFFFFF;" parent="1" vertex="1">
                    <mxGeometry x="1200" y="172" width="50" height="25" as="geometry"/>
                </mxCell>
                <mxCell id="288" value="" style="endArrow=none;html=1;startArrow=none;exitX=0;exitY=0.5;exitDx=0;exitDy=0;entryX=1;entryY=0.5;entryDx=0;entryDy=0;" parent="1" source="225" target="287" edge="1">
                    <mxGeometry width="50" height="50" relative="1" as="geometry">
                        <mxPoint x="1310" y="414" as="sourcePoint"/>
                        <mxPoint x="1250" y="547.5" as="targetPoint"/>
                    </mxGeometry>
                </mxCell>
                <mxCell id="287" value="contient" style="ellipse;fontColor=#FFFFFF;" parent="1" vertex="1">
                    <mxGeometry x="1190" y="370" width="50" height="25" as="geometry"/>
                </mxCell>
                <mxCell id="289" value="0,n" style="text;html=1;align=center;verticalAlign=middle;resizable=0;points=[];autosize=1;strokeColor=none;fillColor=none;fontColor=#FFFFFF;" parent="1" vertex="1">
                    <mxGeometry x="1260" y="360" width="40" height="30" as="geometry"/>
                </mxCell>
                <mxCell id="290" value="0,n" style="text;html=1;align=center;verticalAlign=middle;resizable=0;points=[];autosize=1;strokeColor=none;fillColor=none;fontColor=#FFFFFF;" parent="1" vertex="1">
                    <mxGeometry x="1015" y="626" width="40" height="30" as="geometry"/>
                </mxCell>
                <mxCell id="294" value="" style="edgeStyle=none;html=1;exitX=0.982;exitY=1.074;exitDx=0;exitDy=0;entryX=0;entryY=0;entryDx=0;entryDy=0;exitPerimeter=0;endArrow=none;" parent="1" source="206" target="293" edge="1">
                    <mxGeometry relative="1" as="geometry">
                        <mxPoint x="1026.7600000000002" y="618.3500000000001" as="sourcePoint"/>
                        <mxPoint x="1160" y="747.5" as="targetPoint"/>
                    </mxGeometry>
                </mxCell>
                <mxCell id="293" value="Ã " style="ellipse;fontColor=#FFFFFF;" parent="1" vertex="1">
                    <mxGeometry x="1010" y="670" width="50" height="25" as="geometry"/>
                </mxCell>
                <mxCell id="295" value="0,1" style="text;html=1;align=center;verticalAlign=middle;resizable=0;points=[];autosize=1;strokeColor=none;fillColor=none;fontColor=#FFFFFF;" parent="1" vertex="1">
                    <mxGeometry x="1110" y="826.5" width="40" height="30" as="geometry"/>
                </mxCell>
                <mxCell id="298" value="" style="edgeStyle=none;html=1;entryX=0.75;entryY=0;entryDx=0;entryDy=0;exitX=0.454;exitY=1.03;exitDx=0;exitDy=0;exitPerimeter=0;endArrow=none;" parent="1" source="233" target="297" edge="1">
                    <mxGeometry relative="1" as="geometry">
                        <mxPoint x="1349.9500000000003" y="680.0000000000002" as="sourcePoint"/>
                        <mxPoint x="1355" y="747.5" as="targetPoint"/>
                    </mxGeometry>
                </mxCell>
                <mxCell id="297" value="est en" style="ellipse;fontColor=#FFFFFF;" parent="1" vertex="1">
                    <mxGeometry x="1340" y="735" width="50" height="25" as="geometry"/>
                </mxCell>
                <mxCell id="299" value="1,1" style="text;html=1;align=center;verticalAlign=middle;resizable=0;points=[];autosize=1;strokeColor=none;fillColor=none;fontColor=#FFFFFF;" parent="1" vertex="1">
                    <mxGeometry x="1310" y="772.5" width="40" height="30" as="geometry"/>
                </mxCell>
                <mxCell id="300" value="1,1" style="text;html=1;align=center;verticalAlign=middle;resizable=0;points=[];autosize=1;strokeColor=none;fillColor=none;fontColor=#FFFFFF;" parent="1" vertex="1">
                    <mxGeometry x="1495" y="742.5" width="40" height="30" as="geometry"/>
                </mxCell>
                <mxCell id="302" value="" style="edgeStyle=none;html=1;entryX=0;entryY=0;entryDx=0;entryDy=0;endArrow=none;exitX=0.737;exitY=0.984;exitDx=0;exitDy=0;exitPerimeter=0;" parent="1" source="233" target="301" edge="1">
                    <mxGeometry relative="1" as="geometry">
                        <mxPoint x="1460" y="680" as="sourcePoint"/>
                        <Array as="points"/>
                        <mxPoint x="1475" y="720" as="targetPoint"/>
                    </mxGeometry>
                </mxCell>
                <mxCell id="301" value="est en" style="ellipse;fontColor=#FFFFFF;" parent="1" vertex="1">
                    <mxGeometry x="1445" y="731.5" width="50" height="25" as="geometry"/>
                </mxCell>
                <mxCell id="306" value="" style="edgeStyle=none;html=1;entryX=0;entryY=0.25;entryDx=0;entryDy=0;exitX=1;exitY=0.5;exitDx=0;exitDy=0;endArrow=none;" parent="1" source="202" target="305" edge="1">
                    <mxGeometry relative="1" as="geometry">
                        <mxPoint x="1030" y="504" as="sourcePoint"/>
                        <mxPoint x="1111" y="511" as="targetPoint"/>
                    </mxGeometry>
                </mxCell>
                <mxCell id="305" value="partage" style="ellipse;fontColor=#FFFFFF;" parent="1" vertex="1">
                    <mxGeometry x="1040" y="502" width="50" height="25" as="geometry"/>
                </mxCell>
                <mxCell id="307" value="0,n" style="text;html=1;align=center;verticalAlign=middle;resizable=0;points=[];autosize=1;strokeColor=none;fillColor=none;fontColor=#FFFFFF;" parent="1" vertex="1">
                    <mxGeometry x="1020" y="470" width="40" height="30" as="geometry"/>
                </mxCell>
                <mxCell id="309" value="" style="edgeStyle=none;html=1;entryX=1;entryY=0;entryDx=0;entryDy=0;exitX=0;exitY=0.5;exitDx=0;exitDy=0;endArrow=none;" parent="1" source="251" target="308" edge="1">
                    <mxGeometry relative="1" as="geometry">
                        <mxPoint x="1480" y="836.5" as="sourcePoint"/>
                        <mxPoint x="1420" y="747.5" as="targetPoint"/>
                    </mxGeometry>
                </mxCell>
                <mxCell id="308" value="donne" style="ellipse;fontColor=#FFFFFF;" parent="1" vertex="1">
                    <mxGeometry x="1420" y="821.5" width="50" height="25" as="geometry"/>
                </mxCell>
                <mxCell id="310" value="1,1" style="text;html=1;align=center;verticalAlign=middle;resizable=0;points=[];autosize=1;strokeColor=none;fillColor=none;fontColor=#FFFFFF;" parent="1" vertex="1">
                    <mxGeometry x="1410" y="791.5" width="40" height="30" as="geometry"/>
                </mxCell>
                <mxCell id="312" value="&lt;h1&gt;MLD&lt;/h1&gt;" style="text;html=1;strokeColor=none;fillColor=none;spacing=5;spacingTop=-20;whiteSpace=wrap;overflow=hidden;rounded=0;fontColor=#FFB366;" parent="1" vertex="1">
                    <mxGeometry x="60" y="22" width="190" height="48" as="geometry"/>
                </mxCell>
                <mxCell id="313" value="&lt;h1&gt;MCD&lt;/h1&gt;" style="text;html=1;strokeColor=none;fillColor=none;spacing=5;spacingTop=-20;whiteSpace=wrap;overflow=hidden;rounded=0;fontColor=#FFB366;" parent="1" vertex="1">
                    <mxGeometry x="900" y="32" width="190" height="48" as="geometry"/>
                </mxCell>
                <mxCell id="314" value="" style="edgeStyle=none;html=1;exitX=0.991;exitY=-0.239;exitDx=0;exitDy=0;entryX=0;entryY=0;entryDx=0;entryDy=0;exitPerimeter=0;endArrow=none;endFill=0;" parent="1" source="214" target="283" edge="1">
                    <mxGeometry relative="1" as="geometry">
                        <mxPoint x="1483.4699999999998" y="145.52499999999998" as="sourcePoint"/>
                        <mxPoint x="1495" y="270" as="targetPoint"/>
                    </mxGeometry>
                </mxCell>
                <mxCell id="283" value="Ã " style="ellipse;fontColor=#FFFFFF;" parent="1" vertex="1">
                    <mxGeometry x="1550" y="189" width="50" height="25" as="geometry"/>
                </mxCell>
                <mxCell id="317" value="1,1" style="text;html=1;align=center;verticalAlign=middle;resizable=0;points=[];autosize=1;strokeColor=none;fillColor=none;fontColor=#FFFFFF;" parent="1" vertex="1">
                    <mxGeometry x="1260" y="150" width="40" height="30" as="geometry"/>
                </mxCell>
                <mxCell id="318" value="1,1" style="text;html=1;align=center;verticalAlign=middle;resizable=0;points=[];autosize=1;strokeColor=none;fillColor=none;fontColor=#FFFFFF;" parent="1" vertex="1">
                    <mxGeometry x="1095" y="480" width="40" height="30" as="geometry"/>
                </mxCell>
                <mxCell id="319" value="1,1" style="text;html=1;align=center;verticalAlign=middle;resizable=0;points=[];autosize=1;strokeColor=none;fillColor=none;fontColor=#FFFFFF;" parent="1" vertex="1">
                    <mxGeometry x="1510" y="142" width="40" height="30" as="geometry"/>
                </mxCell>
                <mxCell id="320" value="1,1" style="text;html=1;align=center;verticalAlign=middle;resizable=0;points=[];autosize=1;strokeColor=none;fillColor=none;fontColor=#FFFFFF;" parent="1" vertex="1">
                    <mxGeometry x="1220" y="450" width="40" height="30" as="geometry"/>
                </mxCell>
                <mxCell id="321" value="1,1" style="text;html=1;align=center;verticalAlign=middle;resizable=0;points=[];autosize=1;strokeColor=none;fillColor=none;fontColor=#FFFFFF;" parent="1" vertex="1">
                    <mxGeometry x="1025" y="824" width="40" height="30" as="geometry"/>
                </mxCell>
                <mxCell id="325" value="" style="edgeStyle=none;html=1;exitX=1;exitY=0.5;exitDx=0;exitDy=0;entryX=0;entryY=0.5;entryDx=0;entryDy=0;endArrow=none;endFill=0;" parent="1" source="260" target="296" edge="1">
                    <mxGeometry relative="1" as="geometry">
                        <mxPoint x="1025" y="856.5" as="sourcePoint"/>
                        <mxPoint x="1160" y="814" as="targetPoint"/>
                    </mxGeometry>
                </mxCell>
                <mxCell id="296" value="Ã " style="ellipse;fontColor=#FFFFFF;" parent="1" vertex="1">
                    <mxGeometry x="1060" y="844" width="50" height="25" as="geometry"/>
                </mxCell>
                <mxCell id="326" value="1,1" style="text;html=1;align=center;verticalAlign=middle;resizable=0;points=[];autosize=1;strokeColor=none;fillColor=none;fontColor=#FFFFFF;" parent="1" vertex="1">
                    <mxGeometry x="1135" y="772.5" width="40" height="30" as="geometry"/>
                </mxCell>
                <mxCell id="327" value="0,n" style="text;html=1;align=center;verticalAlign=middle;resizable=0;points=[];autosize=1;strokeColor=none;fillColor=none;fontColor=#FFFFFF;" parent="1" vertex="1">
                    <mxGeometry x="1450" y="700" width="40" height="30" as="geometry"/>
                </mxCell>
                <mxCell id="330" value="0,1" style="text;html=1;align=center;verticalAlign=middle;resizable=0;points=[];autosize=1;strokeColor=none;fillColor=none;fontColor=#FFFFFF;" parent="1" vertex="1">
                    <mxGeometry x="1455" y="844" width="40" height="30" as="geometry"/>
                </mxCell>
                <mxCell id="331" value="0,n" style="text;html=1;align=center;verticalAlign=middle;resizable=0;points=[];autosize=1;strokeColor=none;fillColor=none;fontColor=#FFFFFF;" parent="1" vertex="1">
                    <mxGeometry x="1340" y="701.5" width="40" height="30" as="geometry"/>
                </mxCell>
                <mxCell id="341" style="edgeStyle=none;html=1;exitX=0.5;exitY=0;exitDx=0;exitDy=0;entryX=0.455;entryY=1.132;entryDx=0;entryDy=0;entryPerimeter=0;fontColor=#FFFFFF;endArrow=none;endFill=0;" parent="1" source="340" target="267" edge="1">
                    <mxGeometry relative="1" as="geometry"/>
                </mxCell>
                <mxCell id="342" style="edgeStyle=none;html=1;exitX=0.5;exitY=1;exitDx=0;exitDy=0;entryX=0.25;entryY=0;entryDx=0;entryDy=0;fontColor=#FFFFFF;endArrow=none;endFill=0;" parent="1" source="340" target="236" edge="1">
                    <mxGeometry relative="1" as="geometry"/>
                </mxCell>
                <mxCell id="340" value="&lt;font color=&quot;#ffffff&quot;&gt;contient&lt;/font&gt;" style="ellipse;whiteSpace=wrap;html=1;fontColor=#FFB366;" parent="1" vertex="1">
                    <mxGeometry x="1190" y="656" width="50" height="29" as="geometry"/>
                </mxCell>
                <mxCell id="343" value="0,1" style="text;html=1;align=center;verticalAlign=middle;resizable=0;points=[];autosize=1;strokeColor=none;fillColor=none;fontColor=#FFFFFF;" parent="1" vertex="1">
                    <mxGeometry x="1220" y="784.5" width="40" height="30" as="geometry"/>
                </mxCell>
                <mxCell id="344" value="1,1" style="text;html=1;align=center;verticalAlign=middle;resizable=0;points=[];autosize=1;strokeColor=none;fillColor=none;fontColor=#FFFFFF;" parent="1" vertex="1">
                    <mxGeometry x="1220" y="609" width="40" height="30" as="geometry"/>
                </mxCell>
                <mxCell id="350" value="Photo" style="swimlane;fontStyle=1;align=center;verticalAlign=middle;childLayout=stackLayout;horizontal=1;startSize=29;horizontalStack=0;resizeParent=1;resizeParentMax=0;resizeLast=0;collapsible=0;marginBottom=0;html=1;fillColor=#008a00;fontColor=#ffffff;strokeColor=#005700;" parent="1" vertex="1">
                    <mxGeometry x="1504" y="432" width="150" height="103" as="geometry"/>
                </mxCell>
                <mxCell id="351" value="idPhoto INT" style="text;html=1;strokeColor=none;fillColor=none;align=center;verticalAlign=middle;spacingLeft=4;spacingRight=4;overflow=hidden;rotatable=0;points=[[0,0.5],[1,0.5]];portConstraint=eastwest;fontColor=#FFFF33;" parent="350" vertex="1">
                    <mxGeometry y="29" width="150" height="24" as="geometry"/>
                </mxCell>
                <mxCell id="352" value="url NVARCHAR(255)" style="text;html=1;strokeColor=none;fillColor=none;align=center;verticalAlign=middle;spacingLeft=4;spacingRight=4;overflow=hidden;rotatable=0;points=[[0,0.5],[1,0.5]];portConstraint=eastwest;" parent="350" vertex="1">
                    <mxGeometry y="53" width="150" height="25" as="geometry"/>
                </mxCell>
                <mxCell id="369" value="idLogement INT" style="text;html=1;strokeColor=none;fillColor=none;align=center;verticalAlign=middle;spacingLeft=4;spacingRight=4;overflow=hidden;rotatable=0;points=[[0,0.5],[1,0.5]];portConstraint=eastwest;" parent="350" vertex="1">
                    <mxGeometry y="78" width="150" height="25" as="geometry"/>
                </mxCell>
                <mxCell id="353" value="Photo" style="swimlane;fontStyle=1;align=center;verticalAlign=middle;childLayout=stackLayout;horizontal=1;startSize=29;horizontalStack=0;resizeParent=1;resizeParentMax=0;resizeLast=0;collapsible=0;marginBottom=0;html=1;fillColor=#008a00;fontColor=#ffffff;strokeColor=#005700;" parent="1" vertex="1">
                    <mxGeometry x="660" y="290" width="150" height="103" as="geometry"/>
                </mxCell>
                <mxCell id="354" value="idPhoto INT" style="text;html=1;strokeColor=none;fillColor=none;align=center;verticalAlign=middle;spacingLeft=4;spacingRight=4;overflow=hidden;rotatable=0;points=[[0,0.5],[1,0.5]];portConstraint=eastwest;fontColor=#FFFF33;" parent="353" vertex="1">
                    <mxGeometry y="29" width="150" height="24" as="geometry"/>
                </mxCell>
                <mxCell id="355" value="url NVARCHAR(255)" style="text;html=1;strokeColor=none;fillColor=none;align=center;verticalAlign=middle;spacingLeft=4;spacingRight=4;overflow=hidden;rotatable=0;points=[[0,0.5],[1,0.5]];portConstraint=eastwest;" parent="353" vertex="1">
                    <mxGeometry y="53" width="150" height="25" as="geometry"/>
                </mxCell>
                <mxCell id="368" value="idLogement INT" style="text;html=1;strokeColor=none;fillColor=none;align=center;verticalAlign=middle;spacingLeft=4;spacingRight=4;overflow=hidden;rotatable=0;points=[[0,0.5],[1,0.5]];portConstraint=eastwest;" parent="353" vertex="1">
                    <mxGeometry y="78" width="150" height="25" as="geometry"/>
                </mxCell>
                <mxCell id="356" style="edgeStyle=none;html=1;exitX=1;exitY=0.5;exitDx=0;exitDy=0;entryX=0.025;entryY=1.019;entryDx=0;entryDy=0;entryPerimeter=0;" parent="1" target="354" edge="1">
                    <mxGeometry relative="1" as="geometry">
                        <mxPoint x="640" y="339" as="sourcePoint"/>
                        <mxPoint x="660" y="342.5000000000001" as="targetPoint"/>
                    </mxGeometry>
                </mxCell>
                <mxCell id="361" style="edgeStyle=none;html=1;exitX=0;exitY=0.5;exitDx=0;exitDy=0;entryX=-0.114;entryY=-0.113;entryDx=0;entryDy=0;fontColor=#FFFFFF;endArrow=none;endFill=0;entryPerimeter=0;" parent="1" source="359" target="363" edge="1">
                    <mxGeometry relative="1" as="geometry"/>
                </mxCell>
                <mxCell id="362" style="edgeStyle=none;html=1;exitX=0.5;exitY=1;exitDx=0;exitDy=0;entryX=0.5;entryY=0;entryDx=0;entryDy=0;fontColor=#FFFFFF;endArrow=none;endFill=0;" parent="1" source="359" target="350" edge="1">
                    <mxGeometry relative="1" as="geometry"/>
                </mxCell>
                <mxCell id="359" value="Ã " style="ellipse;fontColor=#FFFFFF;" parent="1" vertex="1">
                    <mxGeometry x="1545" y="370" width="50" height="25" as="geometry"/>
                </mxCell>
                <mxCell id="363" value="1,n" style="text;html=1;align=center;verticalAlign=middle;resizable=0;points=[];autosize=1;strokeColor=none;fillColor=none;fontColor=#FFFFFF;" parent="1" vertex="1">
                    <mxGeometry x="1490" y="370" width="40" height="30" as="geometry"/>
                </mxCell>
                <mxCell id="364" value="1,1" style="text;html=1;align=center;verticalAlign=middle;resizable=0;points=[];autosize=1;strokeColor=none;fillColor=none;fontColor=#FFFFFF;" parent="1" vertex="1">
                    <mxGeometry x="1570" y="405" width="40" height="30" as="geometry"/>
                </mxCell>
            </root>
        </mxGraphModel>
    </diagram>
</mxfile>